<?xml version="1.0" encoding="UTF-8"?>
<svg id="Layer_1" data-name="Layer 1" xmlns="http://www.w3.org/2000/svg" version="1.1" viewBox="0 0 595.28 841.89">
  <defs>
    <style>
      .cls-1 {
        fill: #d3425b;
      }

      .cls-1, .cls-2, .cls-3 {
        stroke-width: 0px;
      }

      .cls-2 {
        fill: #ef5a6f;
      }

      .cls-3 {
        fill: #536493;
      }
    </style>
  </defs>
  <g>
    <path class="cls-3" d="M399.71,326.63l-94.68,54.64v109.34l94.68,54.64,94.68-54.64v-109.34l-94.68-54.64ZM469.41,476.18l-69.7,40.26-69.7-40.26v-80.47l69.7-40.26,69.7,40.26v80.47Z"/>
    <polygon class="cls-2" points="504.28 314.29 458.2 360.37 439.9 378.68 434 384.57 337.85 480.72 330.01 476.18 330.01 453.25 435.8 347.46 486.62 296.64 504.28 314.29"/>
    <polygon class="cls-2" points="453.91 420.01 372.94 500.97 350.56 488.06 356.48 482.14 436.25 402.35 453.91 420.01"/>
    <polygon class="cls-2" points="514.04 415.21 494.39 434.87 430.75 498.5 399.71 516.43 385.63 508.32 494.39 399.55 496.39 397.56 514.04 415.21"/>
    <path class="cls-1" d="M356.48,482.14l-5.92,5.92,22.38,12.91,5.89-5.89-22.35-12.94ZM338.08,445.18l-8.07,8.07v22.93l7.84,4.55,5.92-5.92-5.69-3.27v-26.35ZM399.71,507.12l-8.17-4.72-5.92,5.92,14.09,8.12,31.04-17.93,22.03-22.03-53.07,30.64Z"/>
  </g>
  <g>
    <path class="cls-3" d="M81.23,509.7v-18.87h11.55v1.94h-9.37v6.39h7.73v1.91h-7.73v6.69h9.37v1.94h-11.55Z"/>
    <path class="cls-3" d="M103.44,509.7v-18.87h2.18v16.91h8.25v1.97h-10.43Z"/>
    <path class="cls-3" d="M123.59,509.7v-18.87h6.88c1.24,0,2.27.16,3.1.49.83.33,1.46.85,1.88,1.56.43.71.64,1.63.64,2.76,0,.8-.1,1.48-.29,2.03-.19.56-.46,1.01-.81,1.38s-.77.67-1.28.93c.55.18,1.04.45,1.49.79.45.35.8.81,1.07,1.39.26.58.4,1.33.4,2.24,0,.98-.14,1.82-.41,2.5s-.67,1.23-1.19,1.64c-.52.41-1.14.71-1.86.89-.72.18-1.52.27-2.42.27h-7.21ZM125.78,499.16h4.81c1.17,0,2.01-.28,2.53-.83.52-.56.78-1.39.78-2.5s-.29-1.86-.86-2.35c-.57-.49-1.45-.74-2.64-.74h-4.62v6.42ZM125.78,507.79h4.94c.76,0,1.42-.1,1.98-.3.56-.2.99-.55,1.3-1.05s.46-1.21.46-2.12c0-.71-.13-1.28-.4-1.72-.26-.44-.6-.76-1-.98s-.82-.36-1.26-.44c-.44-.07-.84-.11-1.2-.11h-4.83v6.72Z"/>
    <path class="cls-3" d="M147.49,509.7v-18.87h7.02c1.33,0,2.44.2,3.35.6.9.4,1.58,1.02,2.03,1.87s.68,1.94.68,3.26-.28,2.55-.83,3.5c-.56.95-1.43,1.61-2.61,1.99l3.6,7.65h-2.43l-3.33-7.18h-5.3v7.18h-2.19ZM149.68,500.6h4.86c.93,0,1.67-.17,2.23-.52.56-.35.95-.82,1.19-1.43.24-.61.35-1.3.35-2.06,0-1.29-.31-2.26-.93-2.9-.62-.64-1.58-.96-2.87-.96h-4.83v7.87Z"/>
    <path class="cls-3" d="M169.59,509.7l5.16-18.87h4.73l5.13,18.87h-2.19l-1.34-4.78h-7.98l-1.34,4.78h-2.19ZM173.58,502.98h7.05l-2.81-10.3h-1.42l-2.81,10.3Z"/>
    <path class="cls-3" d="M194.64,509.7v-18.87h2.19v8.74l3.09-.11,4.75-8.63h2.51l-5.33,9.48,5.63,9.4h-2.59l-4.94-8.3-3.11.11v8.19h-2.19Z"/>
  </g>
  <g>
    <g>
      <path class="cls-2" d="M141.06,448.68h-24.44c-3.78,0-7.06-.33-9.83-.98-2.77-.65-4.92-1.89-6.45-3.71-1.53-1.82-2.3-4.46-2.3-7.92,0-1.43.11-2.97.34-4.6.23-1.63.49-3.19.78-4.69.29-1.5.54-2.74.73-3.72l-16.33-3.23c-.13.65-.33,1.58-.59,2.79-.26,1.21-.52,2.58-.78,4.11-.26,1.53-.49,3.13-.68,4.79-.2,1.66-.29,3.28-.29,4.84,0,8.6,2.96,15.19,8.9,19.75,5.93,4.56,14.4,6.84,25.42,6.84h42.33v-74.27h-16.82v60Z"/>
      <path class="cls-2" d="M132.85,416.9h-13.96c-.06-.11-.12-.23-.17-.34-.29-.68-.44-1.42-.44-2.2,0-1.3.42-2.36,1.27-3.18.85-.81,2.05-1.22,3.62-1.22.59,0,1.19.05,1.81.15.62.1,1.25.31,1.91.64l3.81-7.04c-.98-.65-2.2-1.17-3.67-1.56-1.47-.39-2.88-.59-4.25-.59-2.61,0-4.99.57-7.14,1.71-2.15,1.14-3.88,2.69-5.18,4.64-1.3,1.96-1.96,4.17-1.96,6.65,0,.81.09,1.59.25,2.35h-2.6v8.31h26.69v-8.31Z"/>
      <rect class="cls-2" x="165.22" y="388.68" width="16.72" height="74.27"/>
      <rect class="cls-2" x="213.85" y="467.28" width="16.91" height="12.81"/>
      <rect class="cls-2" x="261.73" y="388.68" width="16.72" height="68.44"/>
    </g>
    <path class="cls-2" d="M255.23,388.68v68.44h-41.28v-25.04h-7.25v26.41c0,4.75-1,8.99-2.99,12.76-1.98,3.75-4.75,6.68-8.31,8.79-3.52,2.11-7.66,3.17-12.41,3.17h-101.76v-14.37h96.03c1.19,0,2.26.02,3.28.06,1,.04,1.74.06,2.19.06.09,0,.19,0,.26-.02,2.1-.06,3.76-.96,4.99-2.67,1.26-1.8,1.89-4.4,1.89-7.77v-50.56h16.82v9.77h7.25v-9.77h16.82v34.9h7.64v-54.16h16.82Z"/>
  </g>
</svg>