<?xml version="1.0" encoding="UTF-8"?>
<svg id="Layer_1" data-name="Layer 1" xmlns="http://www.w3.org/2000/svg" version="1.1" viewBox="0 0 595.28 349.11">
  <defs>
    <style>
      .cls-1 {
        fill: #d3425b;
      }

      .cls-1, .cls-2, .cls-3 {
        stroke-width: 0px;
      }

      .cls-2 {
        fill: #ef5a6f;
      }

      .cls-3 {
        fill: #536493;
      }
    </style>
  </defs>
  <g>
    <path class="cls-3" d="M434.04,48.52l-126.52,73.02v146.11l126.52,73.02,126.52-73.02V121.54l-126.52-73.02ZM527.19,248.36l-93.15,53.8-93.15-53.8v-107.53l93.15-53.8,93.15,53.8v107.53Z"/>
    <polygon class="cls-2" points="573.78 32.03 512.2 93.61 487.74 118.07 479.86 125.95 351.38 254.43 340.9 248.36 340.9 217.72 482.27 76.35 550.18 8.44 573.78 32.03"/>
    <polygon class="cls-2" points="506.46 173.3 398.27 281.5 368.36 264.25 376.27 256.34 482.87 149.71 506.46 173.3"/>
    <polygon class="cls-2" points="586.83 166.9 560.56 193.16 475.53 278.2 434.04 302.16 415.22 291.31 560.56 145.97 563.23 143.3 586.83 166.9"/>
    <path class="cls-1" d="M376.27,256.34l-7.91,7.91,29.9,17.25,7.88-7.88-29.87-17.29ZM351.68,206.94l-10.78,10.78v30.64l10.48,6.07,7.91-7.91-7.61-4.37v-35.21ZM434.04,289.71l-10.91-6.31-7.91,7.91,18.82,10.85,41.48-23.96,29.44-29.44-70.92,40.95Z"/>
  </g>
  <g>
    <path class="cls-3" d="M8.45,293.16v-25.22h15.44v2.59h-12.52v8.54h10.33v2.55h-10.33v8.94h12.52v2.59h-15.44Z"/>
    <path class="cls-3" d="M38.12,293.16v-25.22h2.92v22.59h11.02v2.63h-13.94Z"/>
    <path class="cls-3" d="M65.06,293.16v-25.22h9.2c1.65,0,3.03.22,4.14.66,1.11.44,1.95,1.13,2.52,2.08.57.95.86,2.18.86,3.69,0,1.07-.13,1.98-.38,2.72-.26.74-.61,1.36-1.08,1.84s-1.03.9-1.71,1.24c.73.24,1.39.6,1.99,1.06.6.46,1.07,1.08,1.42,1.86.35.78.53,1.78.53,2.99,0,1.31-.18,2.43-.55,3.34s-.89,1.64-1.59,2.19c-.69.55-1.52.94-2.48,1.19-.96.24-2.04.37-3.23.37h-9.64ZM67.98,279.07h6.42c1.56,0,2.68-.37,3.38-1.11.69-.74,1.04-1.86,1.04-3.34s-.38-2.48-1.15-3.14c-.77-.66-1.94-.99-3.52-.99h-6.17v8.58ZM67.98,290.6h6.61c1.02,0,1.9-.13,2.65-.4.74-.27,1.32-.74,1.73-1.41s.62-1.61.62-2.83c0-.95-.18-1.72-.53-2.3-.35-.58-.8-1.02-1.33-1.31s-1.09-.49-1.68-.58c-.58-.1-1.12-.15-1.61-.15h-6.46v8.98Z"/>
    <path class="cls-3" d="M97,293.16v-25.22h9.38c1.78,0,3.27.27,4.47.8,1.21.54,2.11,1.37,2.72,2.5s.91,2.59.91,4.36-.37,3.41-1.11,4.67c-.74,1.27-1.9,2.15-3.49,2.66l4.82,10.22h-3.25l-4.45-9.6h-7.08v9.6h-2.92ZM99.92,281h6.5c1.24,0,2.23-.23,2.97-.69.74-.46,1.27-1.1,1.59-1.92.32-.81.47-1.73.47-2.76,0-1.73-.41-3.02-1.24-3.87-.83-.85-2.11-1.28-3.83-1.28h-6.46v10.51Z"/>
    <path class="cls-3" d="M126.52,293.16l6.9-25.22h6.31l6.86,25.22h-2.92l-1.79-6.39h-10.66l-1.79,6.39h-2.92ZM131.85,284.18h9.42l-3.76-13.76h-1.9l-3.76,13.76Z"/>
    <path class="cls-3" d="M159.99,293.16v-25.22h2.92v11.68l4.12-.15,6.35-11.53h3.36l-7.12,12.67,7.52,12.56h-3.47l-6.61-11.1-4.16.15v10.95h-2.92Z"/>
  </g>
  <g>
    <g>
      <path class="cls-2" d="M88.4,211.61h-32.66c-5.05,0-9.43-.43-13.13-1.31-3.7-.87-6.58-2.52-8.62-4.96-2.05-2.44-3.07-5.96-3.07-10.58,0-1.92.15-3.96.46-6.14.3-2.18.65-4.27,1.05-6.27.39-2,.72-3.66.98-4.97l-21.82-4.31c-.18.87-.44,2.11-.78,3.72-.35,1.61-.7,3.44-1.04,5.49-.35,2.05-.65,4.18-.91,6.4-.26,2.22-.39,4.38-.39,6.47,0,11.5,3.96,20.3,11.89,26.39,7.92,6.1,19.25,9.15,33.97,9.15h56.57v-99.25h-22.47v80.18Z"/>
      <path class="cls-2" d="M77.43,169.15h-18.65c-.08-.15-.16-.31-.22-.46-.39-.91-.59-1.89-.59-2.94,0-1.74.57-3.16,1.7-4.25,1.13-1.09,2.74-1.63,4.83-1.63.78,0,1.59.07,2.42.2.83.13,1.68.41,2.55.85l5.1-9.41c-1.31-.87-2.94-1.57-4.9-2.09-1.96-.52-3.85-.78-5.68-.78-3.48,0-6.66.76-9.54,2.29-2.87,1.53-5.18,3.59-6.92,6.21-1.74,2.61-2.61,5.57-2.61,8.88,0,1.08.12,2.12.33,3.14h-3.47v11.11h35.67v-11.11Z"/>
      <rect class="cls-2" x="120.69" y="131.44" width="22.34" height="99.25"/>
      <rect class="cls-2" x="185.68" y="236.47" width="22.6" height="17.11"/>
      <rect class="cls-2" x="249.65" y="131.43" width="22.34" height="91.45"/>
    </g>
    <path class="cls-2" d="M240.97,131.44v91.45h-55.17v-33.46h-9.69v35.29c0,6.34-1.34,12.02-3.99,17.05-2.65,5.01-6.34,8.92-11.1,11.75-4.71,2.83-10.24,4.24-16.58,4.24H8.45v-19.21h128.33c1.59,0,3.02.02,4.39.07,1.34.05,2.33.07,2.92.07.12,0,.25,0,.35-.02,2.8-.07,5.03-1.29,6.67-3.57,1.69-2.4,2.53-5.87,2.53-10.38v-67.56h22.48v13.06h9.69v-13.06h22.48v46.64h10.21v-72.37h22.48Z"/>
  </g>
</svg>